<svg width="277" height="247" viewBox="0 0 277 247" fill="none" xmlns="http://www.w3.org/2000/svg">
<path d="M276.284 108.167C276.284 184.439 214.446 246.298 138.153 246.298C61.8597 246.298 3.49356e-05 184.439 3.49356e-05 108.167C-0.00546504 100.447 0.638448 92.739 1.92497 85.1262C7.37282 117.314 24.0427 146.533 48.979 167.603C73.9153 188.673 105.507 200.232 138.153 200.231C206.601 200.231 263.412 150.444 274.359 85.1189C275.65 92.7337 276.294 100.444 276.284 108.167Z" fill="white"/>
<path d="M138.153 220.468C66.1673 220.468 7.11872 165.465 0.624755 95.223C0.225238 99.487 6.10352e-05 103.794 6.10352e-05 108.16C6.10352e-05 184.431 61.8452 246.291 138.153 246.291C214.461 246.291 276.284 184.439 276.284 108.167C276.284 103.809 276.066 99.4942 275.667 95.2303C269.165 165.465 210.095 220.468 138.153 220.468Z" fill="white"/>
<path d="M255.938 75.3634V112.649C246.191 132.604 231.731 149.884 213.807 162.996V75.3634H255.938Z" fill="white"/>
<path d="M20.3463 75.3634V112.649C30.0926 132.604 44.5531 149.884 62.4772 162.996V75.3634H20.3463Z" fill="white"/>
<path d="M138.146 112.918H75.1164V118.918C75.1183 120.475 75.7383 121.968 76.8401 123.069C77.942 124.169 79.4356 124.787 80.9929 124.787H195.298C196.069 124.787 196.832 124.635 197.544 124.34C198.256 124.046 198.903 123.613 199.448 123.068C199.993 122.523 200.426 121.876 200.721 121.164C201.016 120.452 201.168 119.689 201.168 118.918V112.918H138.146Z" fill="white"/>
<path d="M21.8936 70.3948H60.9663C61.737 70.3948 62.5003 70.243 63.2124 69.948C63.9244 69.6531 64.5715 69.2207 65.1165 68.6757C65.6615 68.1307 66.0938 67.4837 66.3888 66.7716C66.6837 66.0595 66.8355 65.2963 66.8355 64.5255V60.8209H16.0461V64.5255C16.048 66.0778 16.664 67.5663 17.7596 68.6659C18.8551 69.7656 20.3413 70.3871 21.8936 70.3948Z" fill="white"/>
<path d="M63.5449 60.8282C67.758 58.7217 72.8065 49.2495 66.7048 42.0873C60.6031 34.925 41.4263 32.1865 41.4263 26.9202C41.4263 32.1865 22.264 34.9105 16.155 42.0873C10.046 49.264 15.1017 58.7217 19.3148 60.8282H63.5449Z" fill="white"/>
<path d="M46.7071 0C48.0335 2.35501 48.5531 5.07925 48.1865 7.75711C47.82 10.435 46.5876 12.9194 44.6772 14.8314C42.7669 16.7434 40.2835 17.978 37.6059 18.3468C34.9284 18.7157 32.2037 18.1985 29.8475 16.8741C30.7847 18.5419 32.0952 19.9701 33.6765 21.0468C35.2577 22.1234 37.0668 22.8194 38.962 23.0802C40.8571 23.3409 42.7869 23.1594 44.6002 22.5497C46.4135 21.9401 48.061 20.9189 49.4138 19.5662C50.7665 18.2135 51.7876 16.566 52.3973 14.7527C53.0069 12.9394 53.1885 11.0096 52.9277 9.11443C52.6669 7.21926 51.971 5.41019 50.8943 3.82892C49.8176 2.24766 48.3894 0.93713 46.7217 0H46.7071Z" fill="white"/>
<path d="M138.146 112.918H86.3392C76.4748 107.986 64.6346 85.7799 78.9373 69.0075C93.24 52.235 138.146 45.821 138.146 33.4868C138.146 45.8355 183.037 52.235 197.347 69.0075C211.657 85.7799 199.816 107.986 189.945 112.918H138.146Z" fill="white"/>
<path d="M132.865 1.31482C131.501 3.66957 130.954 6.40868 131.307 9.10656C131.661 11.8044 132.896 14.31 134.82 16.234C136.744 18.158 139.249 19.3927 141.947 19.7462C144.645 20.0997 147.384 19.5523 149.739 18.1889C148.802 19.8567 147.491 21.2849 145.91 22.3616C144.329 23.4383 142.52 24.1342 140.624 24.395C138.729 24.6557 136.799 24.4742 134.986 23.8645C133.173 23.2549 131.525 22.2337 130.173 20.881C128.82 19.5283 127.799 17.8808 127.189 16.0675C126.579 14.2542 126.398 12.3244 126.659 10.4292C126.919 8.53408 127.615 6.72501 128.692 5.14374C129.769 3.56247 131.197 2.25195 132.865 1.31482Z" fill="white"/>
<path d="M138.153 130.235H79.6927V173.601C92.5498 180.246 106.447 184.648 120.785 186.618V169.112C117.48 167.456 113.521 160.017 118.308 154.395C123.095 148.773 138.146 146.63 138.146 142.497C138.146 146.63 153.189 148.773 157.983 154.395C162.778 160.017 158.812 167.47 155.499 169.112V186.618C169.839 184.656 183.738 180.261 196.599 173.623V130.257L138.153 130.235Z" fill="white"/>
<path d="M254.398 70.3948H215.325C213.768 70.3948 212.274 69.7767 211.172 68.6762C210.07 67.5757 209.45 66.0828 209.448 64.5255V60.8209H260.296V64.5255C260.296 65.2987 260.143 66.0643 259.847 66.7783C259.55 67.4923 259.115 68.1406 258.567 68.686C258.019 69.2314 257.368 69.6631 256.653 69.9564C255.937 70.2496 255.171 70.3986 254.398 70.3948Z" fill="white"/>
<path d="M212.746 60.8282C208.533 58.7217 203.478 49.2495 209.587 42.0873C215.695 34.925 234.858 32.1865 234.858 26.9202C234.858 32.1865 254.027 34.9105 260.129 42.0873C266.231 49.264 261.182 58.7217 256.976 60.8282H212.746Z" fill="white"/>
<path d="M229.606 0C228.275 2.35638 227.753 5.08371 228.119 7.76493C228.485 10.4462 229.719 12.9337 231.633 14.8472C233.546 16.7607 236.034 17.9948 238.715 18.3609C241.396 18.7269 244.124 18.2047 246.48 16.8741C245.543 18.5419 244.232 19.9701 242.651 21.0468C241.07 22.1234 239.261 22.8194 237.366 23.0802C235.47 23.3409 233.541 23.1594 231.727 22.5497C229.914 21.9401 228.267 20.9189 226.914 19.5662C225.561 18.2135 224.54 16.566 223.93 14.7527C223.321 12.9394 223.139 11.0096 223.4 9.11443C223.661 7.21926 224.357 5.41019 225.433 3.82892C226.51 2.24766 227.938 0.93713 229.606 0Z" fill="white"/>
</svg>
